<svg width="326" height="48" viewBox="0 0 326 48" fill="none" xmlns="http://www.w3.org/2000/svg">
<path d="M0.348193 14.0616C-0.029403 13.2863 -0.0998875 12.6267 0.136739 12.078C0.373366 11.5292 0.937243 11.2573 1.82333 11.2573H9.07821C9.5716 11.2573 9.99955 11.3882 10.3671 11.6551C10.7346 11.9219 10.9964 12.2995 11.1474 12.7878C11.4697 13.7897 11.8221 14.9074 12.2097 16.1459C12.5974 17.3844 13.0052 18.6431 13.4281 19.932C13.851 21.2208 14.2739 22.4946 14.6918 23.7583C15.1046 25.022 15.4923 26.19 15.8397 27.2573C16.1871 28.3247 16.4992 29.2561 16.7761 30.0515C17.048 30.847 17.2544 31.4109 17.3853 31.7532L23.3967 12.7878C23.6433 12.1837 23.9203 11.7759 24.2324 11.5695C24.5445 11.3631 24.9826 11.2573 25.5515 11.2573H32.2676C32.8164 11.2573 33.2292 11.3228 33.5162 11.4537C33.7982 11.5846 33.9895 11.7658 34.0851 11.9924C34.1808 12.2189 34.2009 12.4807 34.1405 12.7727C34.0851 13.0648 33.9895 13.3719 33.8586 13.6941L30.7422 21.3165C30.8731 21.6387 31.1298 22.1824 31.5074 22.9477C31.885 23.713 32.3129 24.5839 32.7963 25.5556C33.2796 26.5273 33.768 27.5493 34.2714 28.6167C34.7698 29.684 35.1927 30.6809 35.5351 31.6072L42.4778 12.7878C42.7245 12.1837 42.9763 11.7759 43.228 11.5695C43.4848 11.3631 43.8674 11.2573 44.3759 11.2573H50.6389C51.5452 11.2573 52.1695 11.4285 52.5118 11.7658C52.8542 12.1082 52.8693 12.7476 52.5672 13.6941L39.2657 46.0314C39.0946 46.3737 38.8378 46.6607 38.4854 46.8974C38.138 47.134 37.6295 47.2498 36.97 47.2498H33.9945C33.2595 47.2498 32.7208 47.134 32.3784 46.8974C32.036 46.6607 31.7642 46.3536 31.5578 45.976L26.2865 33.1075L21.1009 46.0314C20.8944 46.3737 20.6478 46.6607 20.3658 46.8974C20.0839 47.134 19.6559 47.2498 19.0921 47.2498H15.7189C14.9637 47.2498 14.43 47.139 14.1179 46.9225C13.8057 46.706 13.5741 46.409 13.4231 46.0314L0.348193 14.0616Z" fill="#2069F6"/>
<path d="M68.0939 15.0383C68.4514 14.5097 68.9498 13.9861 69.5842 13.4675C70.2185 12.9489 70.9435 12.4857 71.7692 12.083C72.5898 11.6802 73.5011 11.3479 74.503 11.0912C75.5049 10.8394 76.5622 10.7085 77.6798 10.7085C79.8347 10.7085 81.6975 11.1214 83.2783 11.9521C84.8542 12.7828 86.1581 13.9105 87.1902 15.3454C88.2223 16.7803 88.9876 18.4518 89.486 20.3649C89.9844 22.2781 90.2362 24.3221 90.2362 26.4971V45.0647C90.2362 45.7847 90.0801 46.3284 89.7679 46.6959C89.4558 47.0635 88.9624 47.2497 88.2777 47.2497H81.7277C80.9171 47.2497 80.3583 47.1138 80.0562 46.8369C79.7541 46.565 79.6031 46.0314 79.6031 45.2359V26.5021C79.6031 25.6915 79.447 24.9313 79.1348 24.2365C78.8227 23.5367 78.3998 22.9275 77.8712 22.409C77.3425 21.8904 76.7233 21.4826 76.0134 21.1906C75.3035 20.8986 74.5533 20.7526 73.7579 20.7526C73.0782 20.7526 72.4136 20.8885 71.7591 21.1654C71.1046 21.4373 70.5206 21.825 70.0021 22.3284C69.4835 22.8319 69.0455 23.431 68.6981 24.1258C68.3507 24.8256 68.1443 25.6009 68.0889 26.4518V45.1604C68.0889 45.4826 68.0285 45.8048 67.9026 46.122C67.7818 46.4442 67.5955 46.6909 67.3488 46.857C67.1021 47.0081 66.8705 47.1138 66.654 47.1692C66.4375 47.2246 66.1858 47.2548 65.9039 47.2548H59.4999C58.6893 47.2548 58.1002 47.0584 57.7428 46.6607C57.3853 46.263 57.2041 45.7343 57.2041 45.0748V21.9961V21.7998V13.3668V13.2258V2.70853C57.2041 2.06409 57.3853 1.54553 57.7428 1.1478C58.1002 0.750061 58.6893 0.553711 59.4999 0.553711H65.9039C66.3369 0.553711 66.8202 0.704749 67.3488 1.00683C67.5955 1.178 67.7768 1.4247 67.9026 1.74188C68.0235 2.06409 68.0889 2.36617 68.0889 2.64811V15.0383H68.0939Z" fill="#2069F6"/>
<path d="M95.9303 29.2813C95.9303 27.5444 96.1519 25.8729 96.5949 24.2618C97.0379 22.6558 97.6622 21.1655 98.4678 19.7961C99.2733 18.4267 100.235 17.1781 101.358 16.0554C102.48 14.9327 103.734 13.971 105.113 13.1806C106.493 12.3851 107.983 11.7709 109.579 11.3379C111.175 10.905 112.842 10.6885 114.584 10.6885C117.151 10.6885 119.568 11.1668 121.828 12.1183C124.084 13.0749 126.052 14.3839 127.724 16.0604C129.395 17.7369 130.72 19.7004 131.691 21.9559C132.663 24.2165 133.151 26.6583 133.151 29.2813C133.151 31.0182 132.93 32.6897 132.487 34.2857C132.044 35.8817 131.419 37.3719 130.614 38.7514C129.808 40.1309 128.847 41.3845 127.724 42.5072C126.601 43.6299 125.348 44.5966 123.968 45.3971C122.589 46.2026 121.108 46.8169 119.533 47.2549C117.957 47.6879 116.305 47.9043 114.589 47.9043C112.852 47.9043 111.18 47.6879 109.584 47.2549C107.988 46.8219 106.498 46.2026 105.118 45.3971C103.739 44.5916 102.485 43.6299 101.363 42.5072C100.24 41.3845 99.2733 40.1309 98.4728 38.7514C97.6673 37.3719 97.048 35.8817 96.5999 34.2857C96.1519 32.6847 95.9303 31.0182 95.9303 29.2813ZM106.276 29.2813C106.276 30.5299 106.468 31.6929 106.855 32.7804C107.243 33.8678 107.792 34.8093 108.502 35.5997C109.212 36.3952 110.068 37.0195 111.079 37.4827C112.091 37.9459 113.229 38.1775 114.493 38.1775C115.721 38.1775 116.829 37.9459 117.826 37.4827C118.818 37.0195 119.658 36.3902 120.348 35.5997C121.038 34.8043 121.567 33.8678 121.934 32.7804C122.302 31.6929 122.488 30.5249 122.488 29.2813C122.488 28.073 122.302 26.9201 121.934 25.8225C121.567 24.725 121.038 23.7634 120.348 22.9327C119.658 22.1019 118.818 21.4424 117.826 20.9641C116.834 20.4858 115.721 20.2391 114.493 20.2391C113.224 20.2391 112.086 20.4808 111.079 20.9641C110.068 21.4474 109.207 22.1019 108.502 22.9327C107.792 23.7634 107.243 24.73 106.855 25.8225C106.468 26.9201 106.276 28.073 106.276 29.2813Z" fill="#2069F6"/>
<path d="M134.818 14.0616C134.44 13.2863 134.37 12.6267 134.606 12.078C134.843 11.5292 135.407 11.2573 136.293 11.2573H143.548C144.041 11.2573 144.469 11.3882 144.837 11.6551C145.204 11.9219 145.466 12.2995 145.617 12.7878C145.939 13.7897 146.292 14.9074 146.679 16.1459C147.067 17.3844 147.475 18.6431 147.898 19.932C148.321 21.2208 148.743 22.4946 149.161 23.7583C149.579 25.022 149.962 26.19 150.309 27.2573C150.657 28.3247 150.969 29.2561 151.246 30.0515C151.517 30.847 151.724 31.4109 151.855 31.7532L157.866 12.7878C158.113 12.1837 158.39 11.7759 158.702 11.5695C159.014 11.3631 159.452 11.2573 160.021 11.2573H166.737C167.286 11.2573 167.699 11.3228 167.986 11.4537C168.268 11.5846 168.459 11.7658 168.555 11.9924C168.65 12.2189 168.67 12.4807 168.61 12.7727C168.555 13.0648 168.459 13.3719 168.328 13.6941L165.212 21.3165C165.343 21.6387 165.599 22.1824 165.977 22.9477C166.355 23.713 166.782 24.5839 167.266 25.5556C167.749 26.5273 168.237 27.5493 168.741 28.6167C169.239 29.684 169.662 30.6809 170.005 31.6072L176.947 12.7878C177.194 12.1837 177.446 11.7759 177.697 11.5695C177.954 11.3631 178.337 11.2573 178.845 11.2573H185.108C186.015 11.2573 186.639 11.4285 186.981 11.7658C187.324 12.1082 187.339 12.7476 187.037 13.6941L173.74 46.0364C173.569 46.3788 173.312 46.6658 172.96 46.9024C172.613 47.139 172.104 47.2548 171.444 47.2548H168.469C167.734 47.2548 167.195 47.139 166.853 46.9024C166.511 46.6658 166.239 46.3586 166.032 45.9811L160.756 33.1075L155.57 46.0314C155.364 46.3737 155.117 46.6607 154.835 46.8974C154.553 47.134 154.125 47.2498 153.562 47.2498H150.188C149.433 47.2498 148.899 47.139 148.587 46.9225C148.275 46.706 148.044 46.409 147.893 46.0314L134.818 14.0616Z" fill="#2069F6"/>
<path d="M227.082 45.1553C227.082 45.4775 227.027 45.7846 226.911 46.0766C226.8 46.3686 226.609 46.6002 226.342 46.7714C226.135 46.9778 225.889 47.1138 225.607 47.1691C225.325 47.2245 225.078 47.2547 224.872 47.2547H219.288C218.891 47.2547 218.568 47.2044 218.327 47.0986C218.08 46.9929 217.884 46.8469 217.733 46.6606C217.582 46.4744 217.456 46.2428 217.35 45.9659C217.244 45.694 217.139 45.3969 217.023 45.0747L216.655 43.801C216.147 44.3095 215.563 44.8129 214.913 45.3013C214.264 45.7947 213.544 46.2327 212.759 46.6204C211.973 47.008 211.132 47.3202 210.236 47.5568C209.34 47.7934 208.409 47.9092 207.442 47.9092C205.72 47.9092 204.074 47.6927 202.498 47.2598C200.922 46.8268 199.447 46.2075 198.078 45.402C196.708 44.5964 195.465 43.6348 194.352 42.5121C193.234 41.3894 192.278 40.1358 191.477 38.7563C190.672 37.3768 190.057 35.8866 189.619 34.2906C189.186 32.6946 188.97 31.0282 188.97 29.2862C188.97 26.6581 189.453 24.2163 190.415 21.9608C191.377 19.7053 192.691 17.7368 194.357 16.0653C196.018 14.3938 197.977 13.0798 200.222 12.1232C202.473 11.1716 204.879 10.6934 207.452 10.6934C208.625 10.6934 209.713 10.8243 210.725 11.0911C211.736 11.3579 212.663 11.7154 213.504 12.1685C214.344 12.6216 215.105 13.1654 215.784 13.7997C216.464 14.4341 217.058 15.1188 217.572 15.8538L218.392 13.2761C218.579 12.8029 218.735 12.4202 218.86 12.1282C218.981 11.8362 219.117 11.6197 219.258 11.4788C219.399 11.3378 219.575 11.2421 219.782 11.1968C219.988 11.1515 220.28 11.1263 220.663 11.1263H224.887C225.093 11.1263 225.34 11.1565 225.622 11.2119C225.904 11.2673 226.151 11.4032 226.357 11.6097C226.624 11.8161 226.81 12.0527 226.926 12.3195C227.042 12.5864 227.097 12.8885 227.097 13.2258V45.1553H227.082ZM199.165 29.2811C199.165 30.5297 199.356 31.6927 199.744 32.7802C200.132 33.8677 200.686 34.8092 201.4 35.5996C202.12 36.3951 202.981 37.0194 203.993 37.4825C205.005 37.9457 206.123 38.1773 207.351 38.1773C208.615 38.1773 209.793 37.9457 210.881 37.4825C211.968 37.0194 212.91 36.39 213.715 35.5996C214.521 34.8041 215.145 33.8677 215.598 32.7802C216.051 31.6927 216.278 30.5247 216.278 29.2811C216.278 28.0728 216.051 26.9199 215.598 25.8224C215.145 24.7248 214.516 23.7632 213.715 22.9325C212.91 22.1018 211.968 21.4423 210.881 20.964C209.793 20.4806 208.615 20.239 207.351 20.239C206.123 20.239 205.005 20.4806 203.993 20.964C202.981 21.4473 202.115 22.1018 201.4 22.9325C200.68 23.7632 200.132 24.7299 199.744 25.8224C199.356 26.9199 199.165 28.0728 199.165 29.2811Z" fill="#2069F6"/>
<path d="M234.624 11.7608C234.871 11.5544 235.127 11.4185 235.404 11.3631C235.676 11.3077 235.938 11.2775 236.185 11.2775H240.464C240.806 11.2775 241.098 11.3379 241.345 11.4638C241.592 11.5846 241.798 11.7508 241.969 11.9572C242.14 12.1636 242.276 12.4002 242.382 12.662C242.488 12.9238 242.584 13.2007 242.679 13.4827L243.273 15.9698C243.555 15.3857 244.013 14.7816 244.648 14.1623C245.282 13.538 246.067 12.9742 246.999 12.4657C247.935 11.9572 249.018 11.5393 250.246 11.207C251.475 10.8798 252.844 10.7136 254.354 10.7136C256.509 10.7136 258.432 11.1265 260.124 11.9572C261.816 12.7879 263.251 13.9156 264.434 15.3505C265.617 16.7854 266.513 18.4569 267.127 20.37C267.742 22.2832 268.049 24.3272 268.049 26.5022V45.0698C268.049 45.7898 267.893 46.3335 267.58 46.701C267.268 47.0686 266.775 47.2548 266.09 47.2548H259.54C258.73 47.2548 258.171 47.1189 257.869 46.842C257.567 46.5701 257.416 46.0365 257.416 45.241V26.7841C257.416 25.9735 257.229 25.2032 256.862 24.4732C256.494 23.7482 256.006 23.1038 255.402 22.545C254.798 21.9861 254.113 21.5481 253.348 21.2259C252.582 20.9037 251.802 20.7426 251.011 20.7426C250.332 20.7426 249.637 20.8936 248.927 21.1957C248.217 21.4978 247.568 21.9207 246.974 22.4543C246.38 22.993 245.876 23.6274 245.473 24.3524C245.066 25.0824 244.834 25.8678 244.779 26.7187V45.1453C244.779 45.4676 244.718 45.7898 244.592 46.107C244.472 46.4292 244.285 46.6759 244.039 46.842C243.792 46.993 243.56 47.0988 243.344 47.1542C243.127 47.2095 242.876 47.2397 242.594 47.2397H236.19C235.379 47.2397 234.79 47.0434 234.433 46.6457C234.075 46.2479 233.894 45.7193 233.894 45.0598V13.3719C233.894 13.0144 233.974 12.6822 234.135 12.3851C234.297 12.0881 234.518 11.8464 234.8 11.6803L234.624 11.7608Z" fill="#2069F6"/>
<path d="M277.03 5.6388C277.03 5.05479 277.222 4.61174 277.609 4.31974C277.997 4.02773 278.551 3.75082 279.266 3.48399L285.7 1.24359C285.796 1.22345 285.886 1.21338 285.967 1.21338C286.052 1.21338 286.133 1.21338 286.208 1.21338C286.908 1.21338 287.376 1.41476 287.613 1.82257C287.85 2.23037 287.965 2.76404 287.965 3.42357L287.935 11.2172H291.817C292.421 11.2172 292.915 11.3984 293.292 11.7559C293.67 12.1133 293.861 12.652 293.861 13.372V18.8446C293.861 19.6401 293.67 20.219 293.292 20.5866C292.915 20.9541 292.421 21.1404 291.817 21.1404H287.935L287.965 45.0649C287.965 45.7848 287.759 46.3285 287.341 46.6961C286.923 47.0636 286.349 47.2499 285.614 47.2499H279.21C277.755 47.2499 277.025 46.5249 277.025 45.0649L277 21.1454H274.08C272.625 21.1454 271.895 20.3802 271.895 18.8496V13.377C271.895 11.9421 272.62 11.2222 274.08 11.2222H277L277.03 5.6388Z" fill="#2069F6"/>
<path d="M304.58 36.0529C305.088 36.5614 305.642 36.9944 306.236 37.3418C306.83 37.6891 307.404 37.9761 307.953 38.1926C308.502 38.4091 308.985 38.5652 309.398 38.6608C309.816 38.7565 310.098 38.8018 310.249 38.8018C310.606 38.8018 311.064 38.7867 311.623 38.7615C312.182 38.7313 312.716 38.6457 313.224 38.5047C313.733 38.3638 314.176 38.1322 314.543 37.81C314.911 37.4878 315.097 37.0346 315.097 36.4506C315.097 35.922 314.991 35.4991 314.785 35.192C314.579 34.8798 314.277 34.618 313.879 34.3965C313.481 34.18 312.993 33.9837 312.419 33.8175C311.84 33.6463 311.195 33.45 310.475 33.2234C308.21 32.6193 306.337 31.8893 304.862 31.0384C303.387 30.1876 302.219 29.2411 301.363 28.1888C300.502 27.1416 299.903 26.0088 299.56 24.8005C299.218 23.5922 299.052 22.3134 299.052 20.9742C299.052 19.4034 299.364 17.9786 299.988 16.6948C300.613 15.411 301.499 14.3084 302.652 13.3921C303.805 12.4758 305.184 11.7659 306.79 11.2675C308.396 10.7691 310.183 10.5173 312.147 10.5173C313.335 10.5173 314.453 10.618 315.49 10.8144C316.527 11.0107 317.519 11.3229 318.465 11.7508C319.412 12.1737 320.333 12.7225 321.229 13.3971C322.125 14.0667 323.022 14.8672 323.908 15.7936C324.23 16.1712 324.396 16.5287 324.406 16.8559C324.416 17.1882 324.205 17.5406 323.767 17.9182C323.032 18.5224 322.327 19.1165 321.657 19.7055C320.988 20.2895 320.293 20.944 319.573 21.6589C319.346 21.8502 319.12 21.966 318.893 22.0114C318.667 22.0567 318.45 22.0516 318.244 21.9963C318.037 21.9409 317.836 21.8452 317.65 21.7143C317.458 21.5834 317.292 21.4223 317.141 21.231C316.482 20.4959 315.721 19.9975 314.876 19.7407C314.03 19.484 313.229 19.3581 312.494 19.3581C311.568 19.3581 310.833 19.5192 310.284 19.8414C309.735 20.1637 309.479 20.652 309.519 21.3166C309.554 21.81 309.74 22.1926 310.073 22.4645C310.405 22.7363 310.808 22.9629 311.291 23.129C311.774 23.3002 312.283 23.4362 312.822 23.5419C313.36 23.6476 313.859 23.7634 314.312 23.8943C316.013 24.4431 317.569 25.0372 318.989 25.6816C320.409 26.326 321.632 27.1114 322.674 28.0479C323.711 28.9843 324.522 30.102 325.096 31.4059C325.67 32.7099 325.962 34.2958 325.962 36.1687C325.962 38.0416 325.589 39.7131 324.844 41.1882C324.099 42.6633 323.072 43.9019 321.768 44.9037C320.464 45.9056 318.918 46.6709 317.136 47.1995C315.349 47.7282 313.426 47.995 311.367 47.995C310.193 47.995 309.005 47.8893 307.797 47.6828C306.589 47.4764 305.416 47.1391 304.283 46.6759C303.15 46.2127 302.073 45.6187 301.051 44.8886C300.029 44.1637 299.122 43.2776 298.332 42.2404C298.125 41.9736 297.969 41.6967 297.864 41.4047C297.758 41.1127 297.713 40.8257 297.723 40.5387C297.733 40.2568 297.788 39.995 297.894 39.7584C298 39.5217 298.161 39.3204 298.392 39.1492L302.047 35.494C302.501 35.1165 302.903 34.9856 303.251 35.0963C303.583 35.2071 304.031 35.5243 304.58 36.0529Z" fill="#2069F6"/>
</svg>
